<svg xmlns="http://www.w3.org/2000/svg" width="19.246" height="19.198"><path data-name="Icon material-slow-motion-video" d="M10.612 7.467L7.669 5.258v8.682l2.942-2.209 2.846-2.132zm0 0L7.669 5.258v8.682l2.942-2.209 2.846-2.132zm0 0L7.669 5.258v8.682l2.942-2.209 2.846-2.132zM8.634 1.949V0a9.6 9.6 0 00-5.132 2.132l1.37 1.38a7.661 7.661 0 013.762-1.563zM3.512 4.872l-1.38-1.37A9.6 9.6 0 000 8.634h1.949a7.661 7.661 0 011.563-3.762zm-1.563 5.692H0a9.6 9.6 0 002.132 5.132l1.38-1.38a7.59 7.59 0 01-1.563-3.753zm1.553 6.5a9.629 9.629 0 005.132 2.132v-1.947a7.661 7.661 0 01-3.762-1.563l-1.37 1.38zm15.744-7.467a9.662 9.662 0 01-8.634 9.6v-1.948a7.717 7.717 0 000-15.3V0a9.662 9.662 0 018.634 9.599z" fill="#dd2e28"/></svg>