<svg xmlns="http://www.w3.org/2000/svg" width="11.398" height="12.956" viewBox="0 0 11.398 12.956">
  <g id="qvqsUS" transform="translate(0)">
    <g id="Group_4770" data-name="Group 4770" transform="translate(0 0)">
      <path id="Path_2311" data-name="Path 2311" d="M-49.945,346.491l1.125.548c-.6-1.641-1.923-2.558-3.243-3.533l1.093.139a5.636,5.636,0,0,0-5.154-1.453,5.021,5.021,0,0,0-1.528-1.331l.18.816-.6-.434a4.082,4.082,0,0,1,.039,1.7.561.561,0,0,1-.075.265,8.923,8.923,0,0,0-1.26,2.512,5.609,5.609,0,0,1-.622,1.3,1.334,1.334,0,0,0-.139,1.221,1.157,1.157,0,0,0,1.115.687.83.83,0,0,0,.813-.68.329.329,0,0,1,.275-.272,3.367,3.367,0,0,0,1.736-1.223c.06-.07.116-.143.186-.229a1.608,1.608,0,0,1,.877,1.374,3.794,3.794,0,0,1-.754,2.561,3.482,3.482,0,0,0-.5,2.978.665.665,0,0,0,.069.242c.047.066.142.151.208.144a7.777,7.777,0,0,0,4.868-1.934,4.719,4.719,0,0,0,1.487-4.6,7.137,7.137,0,0,0-.235-.723Z" transform="translate(60.219 -340.86)" fill="#dd2e28"/>
    </g>
  </g>
</svg>
