<svg xmlns="http://www.w3.org/2000/svg" width="137.526" height="157.173" viewBox="0 0 137.526 157.173">
  <path id="Icon_metro-file-zip" data-name="Icon metro-file-zip" d="M135.549,37.089a139.134,139.134,0,0,0-13.381-15.3A139.208,139.208,0,0,0,106.864,8.4C98.948,2.6,95.108,1.928,92.908,1.928H16.778A12.293,12.293,0,0,0,4.5,14.207V146.821A12.293,12.293,0,0,0,16.778,159.1H129.746a12.293,12.293,0,0,0,12.279-12.279V51.044c0-2.2-.671-6.04-6.476-13.956Zm-20.327-8.357a133.972,133.972,0,0,1,11.14,12.49h-23.63V17.592a133.915,133.915,0,0,1,12.49,11.139Zm16.98,118.09a2.489,2.489,0,0,1-2.456,2.456H16.778a2.489,2.489,0,0,1-2.456-2.456V14.207a2.489,2.489,0,0,1,2.456-2.456h76.13V46.133a4.911,4.911,0,0,0,4.912,4.912H132.2ZM33.969,11.751H53.615v9.823H33.969Zm19.647,9.823H73.262V31.4H53.615ZM33.969,31.4H53.615v9.823H33.969V31.4Zm19.647,9.823H73.262v9.823H53.615ZM33.969,51.044H53.615v9.823H33.969Zm19.647,9.823H73.262v9.823H53.615ZM33.969,70.691H53.615v9.823H33.969V70.691Zm19.647,9.823H73.262v9.823H53.615ZM33.969,132.087a7.389,7.389,0,0,0,7.367,7.367H65.894a7.389,7.389,0,0,0,7.367-7.367V107.528a7.389,7.389,0,0,0-7.367-7.367H53.615V90.338H33.969v41.749Zm29.47-12.279v9.823H43.792v-9.823Z" transform="translate(-4.499 -1.928)" fill="#da0000"/>
</svg>
