<svg xmlns="http://www.w3.org/2000/svg" width="137.526" height="157.173"><path data-name="Icon metro-file-zip" d="M131.05 35.161a139.134 139.134 0 00-13.381-15.3 139.208 139.208 0 00-15.304-13.389C94.449.672 90.609 0 88.409 0h-76.13A12.293 12.293 0 00.001 12.279v132.614a12.293 12.293 0 0012.278 12.279h112.968a12.293 12.293 0 0012.279-12.279V49.116c0-2.2-.671-6.04-6.476-13.956zm-20.327-8.357a133.972 133.972 0 0111.14 12.49h-23.63v-23.63a133.915 133.915 0 0112.49 11.139zm16.98 118.09a2.489 2.489 0 01-2.456 2.456H12.279a2.489 2.489 0 01-2.456-2.456V12.279a2.489 2.489 0 012.456-2.456h76.13v34.382a4.911 4.911 0 004.912 4.912h34.38zM29.47 9.823h19.646v9.823H29.47zm19.647 9.823h19.646v9.826H49.116zM29.47 29.472h19.646v9.823H29.47v-9.823zm19.647 9.823h19.646v9.823H49.116zM29.47 49.116h19.646v9.823H29.47zm19.647 9.823h19.646v9.823H49.116zM29.47 68.763h19.646v9.823H29.47v-9.823zm19.647 9.823h19.646v9.823H49.116zM29.47 130.159a7.389 7.389 0 007.367 7.367h24.558a7.389 7.389 0 007.367-7.367V105.6a7.389 7.389 0 00-7.367-7.367H49.116V88.41H29.47v41.749zm29.47-12.279v9.823H39.293v-9.823z" fill="#da0000"/></svg>