<svg xmlns="http://www.w3.org/2000/svg" width="124.463" height="29" viewBox="0 0 124.463 29">
  <g id="Logo_perubet" data-name="Logo perubet" transform="translate(-468.321 -180.157)">
    <g id="perubet">
      <path id="Unión_2" data-name="Unión 2" d="M32.835,29a.014.014,0,0,1,.01,0Zm46.5-2.521a7.4,7.4,0,0,1-5.071-1.858l-.74,1.272-4.49-.02,2.747-20.8L77.369,0l1.085,0L77.215,9.392a9.248,9.248,0,0,1,4.533-1.163c5.424.023,8.754,3.834,8.05,9.164a10.3,10.3,0,0,1-10.409,9.084Zm-3.55-9.145a3.3,3.3,0,0,0,3.429,3.91,4.47,4.47,0,0,0,4.458-3.875,3.3,3.3,0,0,0-3.427-3.929h-.02A4.464,4.464,0,0,0,75.789,17.331Zm14.8-.007A10.589,10.589,0,0,1,101.328,8.2c5.682,0,9.113,3.945,8.471,8.975h0a10.986,10.986,0,0,1-.325,1.563H96.386A2.923,2.923,0,0,0,99.6,21.724,4.1,4.1,0,0,0,103,20.116h6.042A10.816,10.816,0,0,1,99,26.475C93.5,26.475,89.924,22.564,90.591,17.324Zm6.319-1.856h7.126a3.03,3.03,0,0,0-3.3-2.64A3.97,3.97,0,0,0,96.91,15.468ZM50.648,18.55l.294-2.037h6.069l-.259,1.78c-.231,1.81.634,2.875,2.255,2.875a2.943,2.943,0,0,0,2.97-2.875l1.215-9.532h6.07L68.016,18.55c-.612,4.8-4.478,7.925-9.685,7.925S50.036,23.349,50.648,18.55ZM19.255,17.324A10.589,10.589,0,0,1,29.992,8.2c5.681,0,9.112,3.944,8.471,8.975a11.253,11.253,0,0,1-.325,1.564H25.05a2.923,2.923,0,0,0,3.218,2.985,4.1,4.1,0,0,0,3.392-1.609H37.7a10.814,10.814,0,0,1-10.039,6.36C22.163,26.475,18.587,22.564,19.255,17.324Zm6.319-1.857H32.7a3.029,3.029,0,0,0-3.3-2.639A3.97,3.97,0,0,0,25.573,15.467ZM118.2,25.913c-3.9,0-5.972-2.318-5.486-6.13l.825-6.471h-3.227l.175-1.382,8.941-8.183h1.247l-.64,5.015h4.428l-.58,4.549h-4.275l-.7,5.458a1.6,1.6,0,0,0,1.792,1.969h2.33l-.66,5.174ZM0,25.913,2.834,3.679h9.728c4.856,0,8.035,3.371,7.441,8.033a9.37,9.37,0,0,1-9.492,8.059H7.092l-.783,6.141ZM7.773,14.423h2.665a3.016,3.016,0,0,0,3.092-2.7,2.242,2.242,0,0,0-2.4-2.7H8.461Z" transform="translate(468.321 180.157)" fill="#2d2d2d"/>
      <path id="Trazado_672" data-name="Trazado 672" d="M378.648,325.65s-3.572-.131-5-.136l-1.2,0a6.7,6.7,0,0,0-3.586.818l.4-.885,1.077-1.181a.037.037,0,0,0,.009-.019l1.042-6.92a.036.036,0,0,0-.036-.041l-1.028,0a.037.037,0,0,0-.025.01l-5.565,5.054a.038.038,0,0,0-.012.022l-2.68,20.782h6.394a.037.037,0,0,0,.037-.032l.679-6.027a8.141,8.141,0,0,1,1-2.88,3.563,3.563,0,0,1,2.655-1.69,4.568,4.568,0,0,1,.546-.035h.027c.787.006.588.042.872.045,0,0,.37.012.88.009.087,0,.158,0,.217,0a.836.836,0,0,0,.617-.163,1.343,1.343,0,0,0,.29-1.335.637.637,0,0,0-.014-.112c-.04-.142-.08-.277-.117-.4a5.11,5.11,0,0,1-.205-.842.251.251,0,0,1,.139-.235.2.2,0,0,1,.23.013c.2.188,1.062,1.127,1.863,1.971a.95.95,0,0,0,1.637-.567l.574-3.378A1.744,1.744,0,0,0,378.648,325.65Zm-4.857,2.3c-.177.187-.64.251-1.414.2h0c-.146-.01-.28-.018-.4-.025-.926-.053-1.118-.064-1.329-.862-.05-.19-.088-.353-.034-.418s.263-.09.577-.09l.223,0,.255,0c.91.012,2.042.028,2.2.712A.517.517,0,0,1,373.79,327.955Z" transform="translate(145.789 -137.074)" fill="#da0000"/>
    </g>
  </g>
</svg>
