<svg xmlns="http://www.w3.org/2000/svg" width="124.463" height="29"><g data-name="Logo perubet"><path data-name="Unión 2" d="M32.835 29a.014.014 0 01.01 0zm46.5-2.521a7.4 7.4 0 01-5.071-1.858l-.74 1.272-4.49-.02 2.747-20.8L77.369 0h1.085l-1.239 9.392a9.248 9.248 0 014.533-1.163c5.424.023 8.754 3.834 8.05 9.164a10.3 10.3 0 01-10.409 9.084zm-3.55-9.145a3.3 3.3 0 003.429 3.91 4.47 4.47 0 004.458-3.875 3.3 3.3 0 00-3.427-3.929h-.02a4.464 4.464 0 00-4.436 3.891zm14.8-.007A10.589 10.589 0 01101.328 8.2c5.682 0 9.113 3.945 8.471 8.975a10.986 10.986 0 01-.325 1.563H96.386a2.923 2.923 0 003.214 2.986 4.1 4.1 0 003.4-1.608h6.042A10.816 10.816 0 0199 26.475c-5.5 0-9.076-3.911-8.409-9.151zm6.319-1.856h7.126a3.03 3.03 0 00-3.3-2.64 3.97 3.97 0 00-3.82 2.637zM50.648 18.55l.294-2.037h6.069l-.259 1.78c-.231 1.81.634 2.875 2.255 2.875a2.943 2.943 0 002.97-2.875l1.215-9.532h6.07l-1.246 9.789c-.612 4.8-4.478 7.925-9.685 7.925s-8.295-3.126-7.683-7.925zm-31.393-1.226A10.589 10.589 0 0129.992 8.2c5.681 0 9.112 3.944 8.471 8.975a11.253 11.253 0 01-.325 1.564H25.05a2.923 2.923 0 003.218 2.985 4.1 4.1 0 003.392-1.609h6.04a10.814 10.814 0 01-10.039 6.36c-5.498 0-9.074-3.911-8.406-9.151zm6.319-1.857H32.7a3.029 3.029 0 00-3.3-2.639 3.97 3.97 0 00-3.827 2.639zM118.2 25.913c-3.9 0-5.972-2.318-5.486-6.13l.825-6.471h-3.227l.175-1.382 8.941-8.183h1.247l-.64 5.015h4.428l-.58 4.549h-4.275l-.7 5.458a1.6 1.6 0 001.792 1.969h2.33l-.66 5.174zm-118.2 0L2.834 3.679h9.728c4.856 0 8.035 3.371 7.441 8.033a9.37 9.37 0 01-9.492 8.059H7.092l-.783 6.141zm7.773-11.49h2.665a3.016 3.016 0 003.092-2.7 2.242 2.242 0 00-2.4-2.7H8.461z" fill="#2d2d2d"/><path data-name="Trazado 672" d="M56.116 8.419s-3.572-.131-5-.136h-1.2a6.7 6.7 0 00-3.586.818l.4-.885 1.077-1.181a.037.037 0 00.009-.019l1.042-6.92a.036.036 0 00-.036-.041h-1.028a.037.037 0 00-.025.01l-5.565 5.054a.038.038 0 00-.012.022l-2.68 20.782h6.394a.037.037 0 00.037-.032l.679-6.027a8.141 8.141 0 011-2.88 3.563 3.563 0 012.655-1.69 4.568 4.568 0 01.546-.035h.027c.787.006.588.042.872.045 0 0 .37.012.88.009h.217a.836.836 0 00.617-.163 1.343 1.343 0 00.29-1.335.637.637 0 00-.014-.112 23.56 23.56 0 00-.117-.4 5.11 5.11 0 01-.205-.842.251.251 0 01.139-.235.2.2 0 01.23.013c.2.188 1.062 1.127 1.863 1.971a.95.95 0 001.637-.567l.574-3.378a1.744 1.744 0 00-1.717-1.846zm-4.857 2.3c-.177.187-.64.251-1.414.2l-.4-.025c-.926-.053-1.118-.064-1.329-.862-.05-.19-.088-.353-.034-.418s.263-.09.577-.09h.478c.91.012 2.042.028 2.2.712a.517.517 0 01-.079.488z" fill="#da0000"/></g></svg>