<svg xmlns="http://www.w3.org/2000/svg" width="11.626" height="9.442"><path d="M10.431 2.353c.007.1.007.207.007.31a6.733 6.733 0 01-6.779 6.779A6.733 6.733 0 010 8.373a4.929 4.929 0 00.575.029 4.772 4.772 0 002.958-1.018 2.387 2.387 0 01-2.228-1.652 3 3 0 00.45.037 2.52 2.52 0 00.627-.081 2.383 2.383 0 01-1.91-2.339v-.031a2.4 2.4 0 001.077.3A2.386 2.386 0 01.811.431a6.773 6.773 0 004.913 2.493 2.69 2.69 0 01-.059-.546A2.385 2.385 0 019.789.748a4.691 4.691 0 001.512-.575 2.376 2.376 0 01-1.047 1.313 4.776 4.776 0 001.372-.369 5.122 5.122 0 01-1.195 1.236z" fill="#e5e5e5"/></svg>