<svg xmlns="http://www.w3.org/2000/svg" width="200" height="46.6" viewBox="0 0 200 46.6">
  <g id="Logo_perubet" data-name="Logo perubet" transform="translate(-468.321 -180.157)">
    <g id="perubet" transform="translate(468.321 180.157)">
      <path id="Union_2" data-name="Union 2" d="M52.762,46.6a.022.022,0,0,1,.016,0Zm74.727-4.051a11.89,11.89,0,0,1-8.149-2.986L118.151,41.6l-7.215-.032L115.35,8.151,124.325,0l1.744.007-1.991,15.084a14.861,14.861,0,0,1,7.285-1.869c8.716.038,14.067,6.161,12.936,14.725a16.551,16.551,0,0,1-16.726,14.6Zm-5.7-14.695a5.3,5.3,0,0,0,5.51,6.284,7.182,7.182,0,0,0,7.163-6.227,5.3,5.3,0,0,0-5.507-6.314h-.032A7.173,7.173,0,0,0,121.785,27.85Zm23.786-.012c1.077-8.449,8.363-14.662,17.253-14.662,9.13,0,14.643,6.339,13.612,14.422h0a17.652,17.652,0,0,1-.522,2.512H154.883c.236,3.163,2.091,4.8,5.172,4.8a6.594,6.594,0,0,0,5.449-2.584h9.708A17.38,17.38,0,0,1,159.08,42.543C150.244,42.543,144.5,36.258,145.571,27.838Zm10.154-2.982h11.451c-.506-2.755-2.357-4.242-5.3-4.242A6.38,6.38,0,0,0,155.725,24.856ZM81.387,29.808l.473-3.273h9.752L91.2,29.4c-.372,2.908,1.018,4.619,3.624,4.619s4.405-1.74,4.772-4.619l1.952-15.317H111.3l-2,15.729c-.983,7.711-7.195,12.735-15.563,12.735S80.4,37.519,81.387,29.808ZM30.94,27.838c1.077-8.449,8.363-14.662,17.253-14.662,9.128,0,14.643,6.337,13.612,14.422a18.083,18.083,0,0,1-.522,2.514H40.252c.236,3.161,2.09,4.8,5.17,4.8a6.594,6.594,0,0,0,5.451-2.586H60.58a17.377,17.377,0,0,1-16.131,10.22C35.613,42.543,29.867,36.258,30.94,27.838Zm10.154-2.984h11.45c-.5-2.754-2.356-4.24-5.3-4.24A6.379,6.379,0,0,0,41.094,24.855ZM189.932,41.639c-6.264,0-9.6-3.725-8.815-9.85l1.326-10.4h-5.185l.282-2.22L191.908,6.022h2l-1.028,8.058H200l-.931,7.311H192.2l-1.118,8.77c-.252,1.974.821,3.164,2.879,3.164H197.7l-1.06,8.314ZM0,41.639,4.554,5.912H20.186c7.8,0,12.912,5.418,11.957,12.909A15.057,15.057,0,0,1,16.89,31.772H11.4l-1.258,9.867ZM12.491,23.177h4.282a4.846,4.846,0,0,0,4.969-4.334,3.6,3.6,0,0,0-3.864-4.334H13.6Z" transform="translate(0)" fill="#fff"/>
      <path id="Path_672" data-name="Path 672" d="M388.728,330.732s-5.739-.21-8.036-.219l-1.928-.008A10.765,10.765,0,0,0,373,331.82l.636-1.422,1.73-1.9a.06.06,0,0,0,.014-.03l1.674-11.119a.058.058,0,0,0-.059-.066l-1.653-.007a.059.059,0,0,0-.041.016l-8.943,8.121a.061.061,0,0,0-.019.035l-4.306,33.395h10.275a.059.059,0,0,0,.059-.052l1.091-9.685a13.082,13.082,0,0,1,1.6-4.628,5.725,5.725,0,0,1,4.266-2.716,7.344,7.344,0,0,1,.877-.057h.043c1.265.01.944.067,1.4.072.006,0,.594.019,1.415.015.14,0,.254,0,.349,0a1.344,1.344,0,0,0,.992-.262,2.158,2.158,0,0,0,.467-2.145,1.025,1.025,0,0,0-.022-.18c-.064-.228-.128-.445-.188-.649a8.213,8.213,0,0,1-.33-1.352.4.4,0,0,1,.224-.378.319.319,0,0,1,.369.021c.328.3,1.707,1.81,2.993,3.167a1.526,1.526,0,0,0,2.63-.912l.923-5.428A2.8,2.8,0,0,0,388.728,330.732Zm-7.8,3.7c-.285.3-1.029.4-2.273.315h0c-.235-.016-.449-.029-.644-.04-1.487-.085-1.8-.1-2.136-1.385-.081-.306-.141-.568-.054-.671s.423-.145.927-.145c.111,0,.23,0,.358,0l.41.007c1.462.019,3.281.044,3.534,1.145A.831.831,0,0,1,380.923,334.435Z" transform="translate(-298.557 -317.204)" fill="#da0000"/>
    </g>
  </g>
</svg>
