<svg xmlns="http://www.w3.org/2000/svg" width="11.453" height="11.45"><path d="M5.728 2.789a2.936 2.936 0 102.935 2.936 2.931 2.931 0 00-2.935-2.936zm0 4.844a1.909 1.909 0 111.908-1.908 1.912 1.912 0 01-1.909 1.909zm3.741-4.964a.685.685 0 11-.685-.685.683.683 0 01.684.685zm1.944.695a3.389 3.389 0 00-.925-2.4 3.411 3.411 0 00-2.4-.925c-.945-.054-3.779-.054-4.724 0a3.406 3.406 0 00-2.4.922 3.4 3.4 0 00-.925 2.4c-.054.945-.054 3.779 0 4.724a3.389 3.389 0 00.925 2.4 3.415 3.415 0 002.4.925c.945.054 3.779.054 4.724 0a3.389 3.389 0 002.4-.925 3.411 3.411 0 00.925-2.4c.053-.944.053-3.775 0-4.721zM10.192 9.1a1.932 1.932 0 01-1.088 1.088 12.619 12.619 0 01-3.375.23 12.718 12.718 0 01-3.375-.23A1.932 1.932 0 011.266 9.1a12.619 12.619 0 01-.23-3.375 12.718 12.718 0 01.23-3.375 1.932 1.932 0 011.088-1.088 12.619 12.619 0 013.375-.23 12.718 12.718 0 013.375.23 1.932 1.932 0 011.088 1.088 12.619 12.619 0 01.23 3.375 12.612 12.612 0 01-.231 3.375z" fill="#e5e5e5"/></svg>