<svg xmlns="http://www.w3.org/2000/svg" width="36.588" height="36.58" viewBox="0 0 36.588 36.58">
  <path id="instagram" d="M18.223,40.736A9.379,9.379,0,1,0,27.6,50.115,9.364,9.364,0,0,0,18.223,40.736Zm0,15.476a6.1,6.1,0,1,1,6.1-6.1,6.108,6.108,0,0,1-6.1,6.1Zm11.95-15.859a2.188,2.188,0,1,1-2.188-2.188A2.182,2.182,0,0,1,30.173,40.353Zm6.212,2.22c-.139-2.93-.808-5.526-2.955-7.664S28.7,32.1,25.765,31.954c-3.02-.171-12.072-.171-15.092,0-2.922.139-5.518.808-7.664,2.947S.2,39.634.054,42.565c-.171,3.02-.171,12.072,0,15.092.139,2.93.808,5.526,2.955,7.664s4.734,2.808,7.664,2.955c3.02.171,12.072.171,15.092,0,2.93-.139,5.526-.808,7.664-2.955s2.808-4.734,2.955-7.664C36.556,54.637,36.556,45.593,36.384,42.573ZM32.483,60.9a6.173,6.173,0,0,1-3.477,3.477c-2.408.955-8.122.735-10.782.735s-8.383.212-10.782-.735A6.173,6.173,0,0,1,3.963,60.9c-.955-2.408-.735-8.122-.735-10.782s-.212-8.383.735-10.782a6.173,6.173,0,0,1,3.477-3.477c2.408-.955,8.122-.735,10.782-.735s8.383-.212,10.782.735a6.173,6.173,0,0,1,3.477,3.477c.955,2.408.735,8.122.735,10.782S33.438,58.5,32.483,60.9Z" transform="translate(0.075 -31.825)" fill="#e5e5e5"/>
</svg>
