<svg xmlns="http://www.w3.org/2000/svg" width="12.208" height="10.548" viewBox="0 0 12.208 10.548">
  <path id="Path_2269" data-name="Path 2269" d="M-150.479,40.511c-1.163,0-2.327,0-3.492,0A1.356,1.356,0,0,1-155.465,39a13.724,13.724,0,0,0-.554-3.608c-.16-.773-.345-1.54-.518-2.308a1.33,1.33,0,0,1-.032-.179.869.869,0,0,1,.373-.933.869.869,0,0,1,1,.124c.666.484,1.325.981,1.986,1.474.234.173.274.166.4-.095q.72-1.428,1.439-2.858a1.027,1.027,0,0,1,.788-.647.948.948,0,0,1,.99.615c.428.834.842,1.672,1.262,2.511.072.139.147.276.211.419.086.2.2.2.362.078q.923-.7,1.856-1.386a2.072,2.072,0,0,1,.47-.274.748.748,0,0,1,1.059.7,1.735,1.735,0,0,1-.04.465c-.335,1.514-.7,3.022-1,4.545a8.888,8.888,0,0,0-.053,1.5,1.372,1.372,0,0,1-1.055,1.323,2.117,2.117,0,0,1-.491.04C-148.169,40.514-149.323,40.511-150.479,40.511Z" transform="translate(156.577 -29.964)" fill="#dd2e28"/>
</svg>
