<svg xmlns="http://www.w3.org/2000/svg" width="12.208" height="10.548"><path data-name="Path 2269" d="M6.098 10.547H2.606a1.356 1.356 0 01-1.494-1.511 13.724 13.724 0 00-.554-3.608C.398 4.655.213 3.888.04 3.12a1.33 1.33 0 01-.032-.179.869.869 0 01.373-.933.869.869 0 011 .124c.666.484 1.325.981 1.986 1.474.234.173.274.166.4-.095L5.206.653a1.027 1.027 0 01.788-.647.948.948 0 01.99.615c.428.834.842 1.672 1.262 2.511.072.139.147.276.211.419.086.2.2.2.362.078q.923-.7 1.856-1.386a2.072 2.072 0 01.47-.274.748.748 0 011.059.7 1.735 1.735 0 01-.04.465c-.335 1.514-.7 3.022-1 4.545a8.888 8.888 0 00-.053 1.5 1.372 1.372 0 01-1.055 1.323 2.117 2.117 0 01-.491.04c-1.157.008-2.311.005-3.467.005z" fill="#dd2e28"/></svg>