<svg xmlns="http://www.w3.org/2000/svg" width="13.594" height="12.167"><path data-name="Path 2271" d="M13.547 1.11A1.5 1.5 0 0012.088 0a1.492 1.492 0 00-1.413 1.138 1.449 1.449 0 00.776 1.651.258.258 0 01.172.269c-.006 1.751 0 1.594 0 3.347a.491.491 0 01-.488.572 1.557 1.557 0 00-.286-1.175 1.266 1.266 0 00-1.016-.3V2.656c0-.8-.418-1.27-1.117-1.27A7.183 7.183 0 004.772.145a5.8 5.8 0 00-3.663 1.241 1.044 1.044 0 00-1.077.9.134.134 0 01-.027.04v8.9a.766.766 0 01.036.092 1.046 1.046 0 001.009.849h7.656c.711 0 1.127-.471 1.127-1.278V9.46h.008a1.275 1.275 0 001-.294 1.468 1.468 0 00.29-1.169c.158-.034.3-.051.435-.093a1.477 1.477 0 001.047-1.436V3.121a.316.316 0 01.2-.343 1.449 1.449 0 00.734-1.668zM8.152 6.156H1.625v-3.24h6.527z" fill="#dd2e28"/></svg>