<svg xmlns="http://www.w3.org/2000/svg" width="11.662" height="11.658"><g data-name="Group 4723" fill="#dd2e28"><path data-name="Path 2272" d="M6.22 0c.221.029.442.051.663.092a5.517 5.517 0 011.646.577l-.471 1.3a4.325 4.325 0 00-3.8-.309 4.5 4.5 0 00-2.335 2.09 4.314 4.314 0 001.021 5.463 4.442 4.442 0 005.637.121A4.463 4.463 0 009.69 3.595l1.3-.5c.1.231.215.458.307.692a5.279 5.279 0 01.35 1.547.433.433 0 00.02.086v.706a.679.679 0 00-.02.088c-.039.266-.061.536-.119.8a5.831 5.831 0 01-5.24 4.632 5.54 5.54 0 01-3.985-1.2 5.647 5.647 0 01-2.19-5.721A5.831 5.831 0 014.878.093c.213-.037.428-.061.641-.09z"/><path data-name="Path 2273" d="M9.579 6.173a3.655 3.655 0 01-.853 2.061l-.082-.074-1.809-1.811a.442.442 0 01-.059-.121.411.411 0 01.131-.053h2.56z"/><path data-name="Path 2274" d="M3.422 2.931a3.784 3.784 0 012.061-.86v2.675a.438.438 0 01-.045.135c-.043-.018-.1-.025-.129-.057q-.909-.9-1.813-1.809z"/><path data-name="Path 2275" d="M2.931 8.24a3.773 3.773 0 01-.853-2.061c.045 0 .084-.006.125-.006h2.546a.4.4 0 01.133.051.487.487 0 01-.061.127l-1.8 1.8c-.024.032-.055.055-.09.089z"/><path data-name="Path 2276" d="M5.484 9.58a3.759 3.759 0 01-2.061-.849 3.56 3.56 0 01.076-.084q.909-.909 1.82-1.815c.029-.029.09-.059.117-.047a.153.153 0 01.051.117q.006 1.286 0 2.571c-.003.031-.003.066-.003.107z"/><path data-name="Path 2277" d="M6.173 9.582V6.905a.158.158 0 01.047-.119c.027-.012.09.014.119.043q.915.909 1.828 1.826c.02.02.041.043.068.074a3.749 3.749 0 01-2.062.853z"/><path data-name="Path 2278" d="M2.931 3.422c.035.035.061.055.084.08l1.811 1.813a.415.415 0 01.057.117.393.393 0 01-.131.053H2.079a3.759 3.759 0 01.852-2.063z"/><path data-name="Path 2279" d="M6.177 2.073a3.773 3.773 0 011.576.516.087.087 0 01.047.127c-.106.307-.2.618-.311.925a.332.332 0 01-.07.115q-.54.543-1.087 1.085a.144.144 0 01-.113.035c-.023-.006-.045-.061-.045-.094v-2.64c-.001-.02.001-.038.003-.069z"/><path data-name="Path 2280" d="M9.579 5.487H6.908a.428.428 0 01-.131-.049.388.388 0 01.057-.121q.525-.534 1.06-1.062a.382.382 0 01.131-.082c.3-.1.61-.207.917-.3a.119.119 0 01.111.018 3.582 3.582 0 01.526 1.596z"/><path data-name="Path 2281" d="M8.308 3.327l.815-2.3a5.826 5.826 0 011.49 1.482l-2.272.849z"/><path data-name="Path 2282" d="M5.829 6.171a.338.338 0 01-.34-.338.336.336 0 01.336-.344.345.345 0 01.348.346.343.343 0 01-.344.336z"/></g></svg>