<svg xmlns="http://www.w3.org/2000/svg" width="11.662" height="11.658" viewBox="0 0 11.662 11.658">
  <g id="GV7csB.tif" transform="translate(141.834 -22.451)">
    <g id="Group_4723" data-name="Group 4723" transform="translate(-141.834 22.451)">
      <path id="Path_2272" data-name="Path 2272" d="M-135.614,22.451c.221.029.442.051.663.092a5.517,5.517,0,0,1,1.646.577l-.471,1.3a4.325,4.325,0,0,0-3.8-.309,4.5,4.5,0,0,0-2.335,2.09,4.314,4.314,0,0,0,1.021,5.463,4.442,4.442,0,0,0,5.637.121,4.463,4.463,0,0,0,1.109-5.739l1.3-.5c.1.231.215.458.307.692a5.279,5.279,0,0,1,.35,1.547.433.433,0,0,0,.02.086v.706a.679.679,0,0,0-.02.088c-.039.266-.061.536-.119.8a5.831,5.831,0,0,1-5.24,4.632,5.54,5.54,0,0,1-3.985-1.2,5.647,5.647,0,0,1-2.19-5.721,5.831,5.831,0,0,1,4.765-4.632c.213-.037.428-.061.641-.09Z" transform="translate(141.834 -22.451)" fill="#dd2e28"/>
      <path id="Path_2273" data-name="Path 2273" d="M-135.72,25.467a3.655,3.655,0,0,1-.853,2.061l-.082-.074q-.906-.906-1.809-1.811a.442.442,0,0,1-.059-.121.411.411,0,0,1,.131-.053c.854,0,1.707,0,2.56,0Z" transform="translate(145.299 -19.294)" fill="#dd2e28"/>
      <path id="Path_2274" data-name="Path 2274" d="M-140.162,24.323a3.784,3.784,0,0,1,2.061-.86c0,.047,0,.086,0,.125q0,1.274,0,2.55a.438.438,0,0,1-.045.135c-.043-.018-.1-.025-.129-.057q-.909-.9-1.813-1.809Z" transform="translate(143.584 -21.392)" fill="#dd2e28"/>
      <path id="Path_2275" data-name="Path 2275" d="M-139.966,27.534a3.773,3.773,0,0,1-.853-2.061c.045,0,.084-.006.125-.006.849,0,1.7,0,2.546,0a.4.4,0,0,1,.133.051.487.487,0,0,1-.061.127q-.9.9-1.8,1.8C-139.9,27.477-139.931,27.5-139.966,27.534Z" transform="translate(142.897 -19.294)" fill="#dd2e28"/>
      <path id="Path_2276" data-name="Path 2276" d="M-138.1,28.563a3.759,3.759,0,0,1-2.061-.849c.027-.031.051-.057.076-.084q.909-.909,1.82-1.815c.029-.029.09-.059.117-.047a.153.153,0,0,1,.051.117q.006,1.286,0,2.571C-138.1,28.487-138.1,28.522-138.1,28.563Z" transform="translate(143.584 -18.983)" fill="#dd2e28"/>
      <path id="Path_2277" data-name="Path 2277" d="M-138.818,28.564v-.117q0-1.28,0-2.56a.158.158,0,0,1,.047-.119c.027-.012.09.014.119.043q.915.909,1.828,1.826c.02.02.041.043.068.074A3.749,3.749,0,0,1-138.818,28.564Z" transform="translate(144.991 -18.982)" fill="#dd2e28"/>
      <path id="Path_2278" data-name="Path 2278" d="M-139.967,24.123c.035.035.061.055.084.08q.906.906,1.811,1.813a.415.415,0,0,1,.057.117.393.393,0,0,1-.131.053q-1.28,0-2.56,0h-.113A3.759,3.759,0,0,1-139.967,24.123Z" transform="translate(142.898 -20.701)" fill="#dd2e28"/>
      <path id="Path_2279" data-name="Path 2279" d="M-138.814,23.464a3.773,3.773,0,0,1,1.576.516.087.087,0,0,1,.047.127c-.106.307-.2.618-.311.925a.332.332,0,0,1-.07.115q-.54.543-1.087,1.085a.144.144,0,0,1-.113.035c-.023-.006-.045-.061-.045-.094q0-1.32,0-2.64C-138.818,23.513-138.816,23.495-138.814,23.464Z" transform="translate(144.991 -21.391)" fill="#dd2e28"/>
      <path id="Path_2280" data-name="Path 2280" d="M-135.721,25.963h-.111q-1.28,0-2.56,0a.428.428,0,0,1-.131-.049.388.388,0,0,1,.057-.121q.525-.534,1.06-1.062a.382.382,0,0,1,.131-.082c.3-.1.61-.207.917-.3a.119.119,0,0,1,.111.018A3.582,3.582,0,0,1-135.721,25.963Z" transform="translate(145.3 -20.476)" fill="#dd2e28"/>
      <path id="Path_2281" data-name="Path 2281" d="M-137.775,25.253l.815-2.3a5.826,5.826,0,0,1,1.49,1.482l-2.272.849Z" transform="translate(146.083 -21.926)" fill="#dd2e28"/>
      <path id="Path_2282" data-name="Path 2282" d="M-138.812,25.815a.338.338,0,0,1-.34-.338.336.336,0,0,1,.336-.344.345.345,0,0,1,.348.346A.343.343,0,0,1-138.812,25.815Z" transform="translate(144.641 -19.644)" fill="#dd2e28"/>
    </g>
  </g>
</svg>
