<svg xmlns="http://www.w3.org/2000/svg" width="11.03" height="12.874"><path data-name="Path 2283" d="M4.841 8.843l-.348.187a3.2 3.2 0 01-3.9-.682 2.4 2.4 0 01-.594-1.535 3.446 3.446 0 01.6-2.191 6 6 0 01.784-.861Q3.257 1.98 5.153.225c.344-.322.3-.275.586-.007q1.924 1.764 3.822 3.551a5.231 5.231 0 01.9 1 3.5 3.5 0 01.55 1.51 2.651 2.651 0 01-1.275 2.576 2.829 2.829 0 01-1.59.5 3.682 3.682 0 01-1.821-.41 2.62 2.62 0 00-.249-.1c.026.176.04.326.062.473a11.454 11.454 0 00.531 2.261 3.165 3.165 0 00.5.927.215.215 0 01.066.242c-.044.1-.139.11-.227.114-.282.007-.568.015-.85.015-.66 0-1.319 0-1.975-.007a2.132 2.132 0 01-.268-.026.171.171 0 01-.121-.282 3.3 3.3 0 00.693-1.59c.15-.674.238-1.367.352-2.052a.28.28 0 00.002-.077z" fill="#dd2e28"/></svg>