<svg xmlns="http://www.w3.org/2000/svg" width="11.979" height="12.013"><path data-name="Path 2284" d="M3.061 3.652A3 3 0 015.702.015a2.882 2.882 0 012.53 1 2.976 2.976 0 01.688 2.641 2.984 2.984 0 012.143.846 2.938 2.938 0 01.858 1.573 2.987 2.987 0 01-1.368 3.131 2.919 2.919 0 01-1.969.415 3.071 3.071 0 01-1.8-.905c.008.091.016.182.028.269a12.925 12.925 0 00.277 1.554 5.358 5.358 0 00.269.818 1.568 1.568 0 00.447.636v.016H4.211l-.024-.008v-.007a1.885 1.885 0 00.526-.854 7.147 7.147 0 00.336-1.309c.059-.356.1-.716.154-1.075v-.063a3 3 0 01-2.2.953 2.911 2.911 0 01-1.7-.526A2.99 2.99 0 01.089 5.945a2.927 2.927 0 011.083-1.664 2.986 2.986 0 011.889-.629z" fill="#dd2e28"/></svg>