<svg xmlns="http://www.w3.org/2000/svg" width="14.299" height="14.299"><g data-name="Group 4725" fill="#dd2e28"><path data-name="Path 2288" d="M-.002 6.731l.04-.213h1.925l.063 1.659H.074l-.077-.58z"/><path data-name="Path 2289" d="M7.596 0l.385.056v1.946H6.318V.054L6.703 0z"/><path data-name="Path 2290" d="M7.156 11.49a4.345 4.345 0 01-4.348-4.334 4.347 4.347 0 014.336-4.348 4.345 4.345 0 014.348 4.334 4.348 4.348 0 01-4.336 4.348zm-.1-6.889a5.711 5.711 0 00-.657.2 1.284 1.284 0 00-.831 1.17 1.252 1.252 0 00.63 1.22 4.791 4.791 0 00.557.287c.222.1.224.094.224.333v.988a.665.665 0 01-.157-.025c-.218-.1-.442-.19-.649-.306a.371.371 0 00-.521.077 1.36 1.36 0 00-.107.146.342.342 0 00.067.485 2.036 2.036 0 001.109.481c.111.013.161.033.161.159a.244.244 0 00.268.241.254.254 0 00.251-.249c0-.046.006-.092.01-.124a5.094 5.094 0 00.555-.167 1.445 1.445 0 00.94-1.546A1.348 1.348 0 008.088 6.9a5.243 5.243 0 00-.5-.22.133.133 0 01-.092-.147c.011-.3.015-.605.021-.906 0-.05.008-.1.017-.193.2.094.375.169.542.262a.366.366 0 00.55-.132c.165-.253.146-.442-.082-.586a2.649 2.649 0 00-.473-.234 3.976 3.976 0 00-.456-.119c-.036-.3-.094-.383-.259-.391s-.227.07-.296.367z"/><path data-name="Path 2291" d="M14.262 6.522a6.725 6.725 0 01-.044 1.653h-1.952l.063-1.653z"/><path data-name="Path 2292" d="M6.318 12.279c.285.015.559.044.831.044s.546-.029.827-.044v1.968a6.584 6.584 0 01-1.659 0z"/><path data-name="Path 2293" d="M1.624 11.729l1.392-1.394L4.2 11.454l-1.4 1.4z"/><path data-name="Path 2294" d="M2.578 1.615l1.394 1.394-1.115 1.174-1.4-1.4z"/><path data-name="Path 2295" d="M10.327 3.006L11.7 1.638a6.926 6.926 0 011.133 1.182l-1.381 1.383z"/><path data-name="Path 2296" d="M12.676 11.729l-1.174 1.128-1.4-1.4 1.182-1.12z"/><path data-name="Path 2297" d="M8.826.201a7 7 0 012.153.912L9.546 2.546c-.209-.088-.435-.182-.659-.28a.108.108 0 01-.059-.077C8.824 1.53 8.826.875 8.826.201z"/><path data-name="Path 2298" d="M3.327 1.111a6.989 6.989 0 012.147-.91V2.12a.149.149 0 01-.113.172c-.209.077-.412.17-.6.251z"/><path data-name="Path 2299" d="M.161 5.656a7.057 7.057 0 01.812-2.1c.035.029.063.05.088.075.431.431.86.862 1.293 1.289a.146.146 0 01.04.192c-.071.157-.121.322-.186.479a.149.149 0 01-.1.082h-1.9a.282.282 0 01-.047-.017z"/><path data-name="Path 2300" d="M14.143 5.672h-1.915a.128.128 0 01-.147-.105c-.052-.163-.123-.32-.178-.483a.167.167 0 01.013-.13c.458-.464.919-.923 1.379-1.381l.038-.011a7.13 7.13 0 01.81 2.11z"/><path data-name="Path 2301" d="M1.13 11.003a6.99 6.99 0 01-.879-1.982h1.963a.128.128 0 01.146.094c.048.125.115.241.165.368a.154.154 0 01-.01.128c-.456.461-.916.921-1.385 1.392z"/><path data-name="Path 2302" d="M13.172 11a259.65 259.65 0 01-1.389-1.392.136.136 0 01-.011-.117 4.236 4.236 0 01.18-.391.15.15 0 01.109-.075c.649-.006 1.3 0 1.95 0a.141.141 0 01.034.011A6.929 6.929 0 0113.172 11z"/><path data-name="Path 2303" d="M10.753 13.323a6.958 6.958 0 01-1.917.774c0-.046-.01-.084-.01-.123v-1.8c0-.092.036-.124.113-.172.27-.163.45-.092.653.138.331.373.7.714 1.057 1.069.029.034.06.064.104.114z"/><path data-name="Path 2304" d="M5.474 14.097a6.929 6.929 0 01-1.923-.772c.027-.033.042-.054.061-.073q.658-.655 1.312-1.314c.057-.057.107-.08.18-.034a.748.748 0 00.113.05c.257.107.257.107.257.391v1.753z"/><path data-name="Path 2305" d="M7.443 8.793V7.749a.547.547 0 01.465.615.5.5 0 01-.465.429z"/><path data-name="Path 2306" d="M7.048 5.476v.983a.536.536 0 01-.456-.561.456.456 0 01.456-.422z"/></g></svg>