<svg xmlns="http://www.w3.org/2000/svg" width="33.984" height="31.139" viewBox="0 0 33.984 31.139">
  <g id="Frame" transform="translate(0)">
    <rect id="Frame-2" data-name="Frame" width="33.964" height="31.134" transform="translate(0.021 0)" fill="none"/>
    <path id="Vector" d="M29.563,8.845H27.788c-.081,0-.183-.119-.234-.208A13.965,13.965,0,0,0,22.364,3.5a13.62,13.62,0,0,0-5.521-1.727A13.86,13.86,0,1,0,27.907,21.846a.31.31,0,0,1,.323-.217H29.89a15.14,15.14,0,0,1-3.546,5.154,15.131,15.131,0,0,1-10.41,4.342A15.569,15.569,0,1,1,29.567,8.849Z" transform="translate(0 0.009)" fill="#fff"/>
    <path id="Vector-2" data-name="Vector" d="M1.931,7.6A4.024,4.024,0,0,1,.7,5.686,3.954,3.954,0,0,1,1.774,1.535,5.889,5.889,0,0,1,9.181,1.11a4.2,4.2,0,0,1,.484,6.251l-.187.2.425.378a4.608,4.608,0,0,1-.136,6.775,5.9,5.9,0,0,1-4.536,1.505,5.748,5.748,0,0,1-4.149-2.05,4.435,4.435,0,0,1,.6-6.379ZM5.669,9.3a2.334,2.334,0,0,0-1.351.37,1.885,1.885,0,0,0-.552,2.828,2.52,2.52,0,0,0,3.079.6,1.912,1.912,0,0,0,.263-3.364,2.274,2.274,0,0,0-1.44-.447Zm.042-2.858a5.183,5.183,0,0,0,.73-.157,1.837,1.837,0,0,0,1.3-1.565,1.7,1.7,0,0,0-1.019-1.8A2.189,2.189,0,0,0,4.314,3.1a1.7,1.7,0,0,0-.076,2.8,2.449,2.449,0,0,0,1.474.527Z" transform="translate(11.323 7.404)" fill="#fff"/>
    <path id="Vector-3" data-name="Vector" d="M6.719,3.708h3.47c.225,0,.289.077.289.293v2.7H7.033c-.242,0-.3.072-.3.306V10.47H3.763V6.724H0V3.747H3.72V0h3Z" transform="translate(23.507 9.985)" fill="#fff"/>
    <path id="Vector-4" data-name="Vector" d="M3.113,15.778H0V0H3.113Z" transform="translate(5.555 7.642)" fill="#fff"/>
  </g>
</svg>
