<svg xmlns="http://www.w3.org/2000/svg" width="33.984" height="31.139"><path data-name="Frame" fill="none" d="M.021 0h33.964v31.134H.021z"/><path d="M29.563 8.854h-1.775c-.081 0-.183-.119-.234-.208a13.965 13.965 0 00-5.19-5.137 13.62 13.62 0 00-5.521-1.727 13.86 13.86 0 1011.064 20.073.31.31 0 01.323-.217h1.66a15.14 15.14 0 01-3.546 5.154 15.131 15.131 0 01-10.41 4.342A15.569 15.569 0 1129.567 8.858z" fill="#fff"/><path data-name="Vector" d="M13.254 15.004a4.024 4.024 0 01-1.231-1.914 3.954 3.954 0 011.074-4.151 5.889 5.889 0 017.407-.425 4.2 4.2 0 01.484 6.251l-.187.2.425.378a4.608 4.608 0 01-.136 6.775 5.9 5.9 0 01-4.536 1.505 5.748 5.748 0 01-4.149-2.05 4.435 4.435 0 01.6-6.379zm3.738 1.7a2.334 2.334 0 00-1.351.37 1.885 1.885 0 00-.552 2.828 2.52 2.52 0 003.079.6 1.912 1.912 0 00.263-3.364 2.274 2.274 0 00-1.44-.447zm.042-2.858a5.183 5.183 0 00.73-.157 1.837 1.837 0 001.3-1.565 1.7 1.7 0 00-1.019-1.8 2.189 2.189 0 00-2.408.18 1.7 1.7 0 00-.076 2.8 2.449 2.449 0 001.474.527zm13.192-.153h3.47c.225 0 .289.077.289.293v2.7H30.54c-.242 0-.3.072-.3.306v3.463h-2.97v-3.746h-3.763v-2.977h3.72V9.985h3zM8.668 23.42H5.555V7.642h3.113z" fill="#fff"/></svg>