<svg xmlns="http://www.w3.org/2000/svg" width="11.453" height="11.45" viewBox="0 0 11.453 11.45">
  <path id="instagram" d="M5.653,34.614A2.936,2.936,0,1,0,8.588,37.55,2.931,2.931,0,0,0,5.653,34.614Zm0,4.844A1.909,1.909,0,1,1,7.561,37.55a1.912,1.912,0,0,1-1.909,1.909Zm3.741-4.964a.685.685,0,1,1-.685-.685A.683.683,0,0,1,9.393,34.494Zm1.944.695a3.389,3.389,0,0,0-.925-2.4,3.411,3.411,0,0,0-2.4-.925c-.945-.054-3.779-.054-4.724,0a3.406,3.406,0,0,0-2.4.922,3.4,3.4,0,0,0-.925,2.4c-.054.945-.054,3.779,0,4.724a3.389,3.389,0,0,0,.925,2.4,3.415,3.415,0,0,0,2.4.925c.945.054,3.779.054,4.724,0a3.389,3.389,0,0,0,2.4-.925,3.411,3.411,0,0,0,.925-2.4C11.391,38.966,11.391,36.135,11.338,35.189Zm-1.221,5.736a1.932,1.932,0,0,1-1.088,1.088,12.619,12.619,0,0,1-3.375.23,12.718,12.718,0,0,1-3.375-.23,1.932,1.932,0,0,1-1.088-1.088,12.619,12.619,0,0,1-.23-3.375,12.718,12.718,0,0,1,.23-3.375,1.932,1.932,0,0,1,1.088-1.088,12.619,12.619,0,0,1,3.375-.23,12.718,12.718,0,0,1,3.375.23,1.932,1.932,0,0,1,1.088,1.088,12.619,12.619,0,0,1,.23,3.375A12.612,12.612,0,0,1,10.116,40.925Z" transform="translate(0.075 -31.825)" fill="#e5e5e5"/>
</svg>
