<svg xmlns="http://www.w3.org/2000/svg" width="11.626" height="9.442" viewBox="0 0 11.626 9.442">
  <path id="twitter" d="M10.431,50.435c.007.1.007.207.007.31a6.733,6.733,0,0,1-6.779,6.779A6.733,6.733,0,0,1,0,56.455a4.929,4.929,0,0,0,.575.029,4.772,4.772,0,0,0,2.958-1.018,2.387,2.387,0,0,1-2.228-1.652,3,3,0,0,0,.45.037,2.52,2.52,0,0,0,.627-.081A2.383,2.383,0,0,1,.472,51.431V51.4a2.4,2.4,0,0,0,1.077.3,2.386,2.386,0,0,1-.738-3.187,6.773,6.773,0,0,0,4.913,2.493,2.69,2.69,0,0,1-.059-.546,2.385,2.385,0,0,1,4.124-1.63,4.691,4.691,0,0,0,1.512-.575,2.376,2.376,0,0,1-1.047,1.313,4.776,4.776,0,0,0,1.372-.369A5.122,5.122,0,0,1,10.431,50.435Z" transform="translate(0 -48.082)" fill="#e5e5e5"/>
</svg>
