<svg xmlns="http://www.w3.org/2000/svg" width="11.398" height="12.956"><g data-name="Group 4770"><path data-name="Path 2311" d="M10.274 5.631l1.125.548c-.6-1.641-1.923-2.558-3.243-3.533l1.093.139a5.636 5.636 0 00-5.154-1.453A5.021 5.021 0 002.567.001l.18.816-.6-.434a4.082 4.082 0 01.039 1.7.561.561 0 01-.075.265A8.923 8.923 0 00.851 4.86a5.609 5.609 0 01-.622 1.3A1.334 1.334 0 00.09 7.381a1.157 1.157 0 001.115.687.83.83 0 00.813-.68.329.329 0 01.275-.272 3.367 3.367 0 001.736-1.223c.06-.07.116-.143.186-.229a1.608 1.608 0 01.877 1.374 3.794 3.794 0 01-.754 2.561 3.482 3.482 0 00-.5 2.978.665.665 0 00.069.242c.047.066.142.151.208.144a7.777 7.777 0 004.868-1.934 4.719 4.719 0 001.487-4.6 7.137 7.137 0 00-.235-.723z" fill="#dd2e28"/></g></svg>