<svg xmlns="http://www.w3.org/2000/svg" width="36.588" height="36.58"><path d="M18.298 8.911a9.379 9.379 0 109.377 9.379 9.364 9.364 0 00-9.377-9.379zm0 15.476a6.1 6.1 0 116.1-6.1 6.108 6.108 0 01-6.1 6.1zm11.95-15.859A2.188 2.188 0 1128.06 6.34a2.182 2.182 0 012.188 2.188zm6.212 2.22c-.139-2.93-.808-5.526-2.955-7.664S28.775.275 25.84.129c-3.02-.171-12.072-.171-15.092 0C7.826.268 5.23.937 3.084 3.076S.275 7.809.129 10.74c-.171 3.02-.171 12.072 0 15.092.139 2.93.808 5.526 2.955 7.664s4.734 2.808 7.664 2.955c3.02.171 12.072.171 15.092 0 2.93-.139 5.526-.808 7.664-2.955s2.808-4.734 2.955-7.664c.172-3.02.172-12.064 0-15.084zm-3.902 18.327a6.173 6.173 0 01-3.477 3.477c-2.408.955-8.122.735-10.782.735s-8.383.212-10.782-.735a6.173 6.173 0 01-3.479-3.477c-.955-2.408-.735-8.122-.735-10.782s-.212-8.383.735-10.782a6.173 6.173 0 013.477-3.477c2.408-.955 8.122-.735 10.782-.735s8.383-.212 10.782.735a6.173 6.173 0 013.477 3.477c.955 2.408.735 8.122.735 10.782s.222 8.382-.733 10.782z" fill="#d92997"/></svg>