<svg xmlns="http://www.w3.org/2000/svg" width="39.75" height="32.285"><path d="M35.664 8.046c.025.353.025.706.025 1.059 0 10.77-8.2 23.179-23.179 23.179A23.022 23.022 0 010 28.627a16.851 16.851 0 001.967.1 16.316 16.316 0 0010.114-3.479 8.161 8.161 0 01-7.617-5.65A10.272 10.272 0 006 19.724a8.616 8.616 0 002.144-.277 8.148 8.148 0 01-6.533-8v-.1A8.2 8.2 0 005.3 12.384a8.159 8.159 0 01-2.522-10.9 23.157 23.157 0 0016.8 8.525 9.2 9.2 0 01-.2-1.866 8.155 8.155 0 0114.1-5.574A16.04 16.04 0 0038.649.602a8.125 8.125 0 01-3.582 4.49 16.332 16.332 0 004.691-1.261 17.512 17.512 0 01-4.094 4.215z" fill="#00acee"/></svg>