<svg xmlns="http://www.w3.org/2000/svg" width="39.75" height="32.285" viewBox="0 0 39.75 32.285">
  <path id="twitter" d="M35.664,56.128c.025.353.025.706.025,1.059,0,10.77-8.2,23.179-23.179,23.179A23.022,23.022,0,0,1,0,76.709a16.851,16.851,0,0,0,1.967.1A16.316,16.316,0,0,0,12.081,73.33a8.161,8.161,0,0,1-7.617-5.65A10.272,10.272,0,0,0,6,67.806a8.616,8.616,0,0,0,2.144-.277,8.148,8.148,0,0,1-6.533-8v-.1A8.2,8.2,0,0,0,5.3,60.466a8.159,8.159,0,0,1-2.522-10.9,23.157,23.157,0,0,0,16.8,8.525,9.2,9.2,0,0,1-.2-1.866,8.155,8.155,0,0,1,14.1-5.574,16.04,16.04,0,0,0,5.171-1.967,8.125,8.125,0,0,1-3.582,4.49,16.332,16.332,0,0,0,4.691-1.261A17.512,17.512,0,0,1,35.664,56.128Z" transform="translate(0 -48.082)" fill="#00acee"/>
</svg>
