<svg xmlns="http://www.w3.org/2000/svg" width="19.246" height="19.198" viewBox="0 0 19.246 19.198">
  <path id="Icon_material-slow-motion-video" data-name="Icon material-slow-motion-video" d="M13.687,10.542,10.744,8.333v8.682l2.942-2.209,2.846-2.132Zm0,0L10.744,8.333v8.682l2.942-2.209,2.846-2.132Zm0,0L10.744,8.333v8.682l2.942-2.209,2.846-2.132ZM11.709,5.024V3.075A9.6,9.6,0,0,0,6.577,5.207l1.37,1.38a7.661,7.661,0,0,1,3.762-1.563ZM6.587,7.947l-1.38-1.37a9.6,9.6,0,0,0-2.132,5.132H5.024A7.661,7.661,0,0,1,6.587,7.947ZM5.024,13.639H3.075a9.6,9.6,0,0,0,2.132,5.132l1.38-1.38a7.59,7.59,0,0,1-1.563-3.753Zm1.553,6.5a9.629,9.629,0,0,0,5.132,2.132V20.324a7.661,7.661,0,0,1-3.762-1.563l-1.37,1.38Zm15.744-7.467a9.662,9.662,0,0,1-8.634,9.6V20.324a7.717,7.717,0,0,0,0-15.3V3.075A9.662,9.662,0,0,1,22.321,12.674Z" transform="translate(-3.075 -3.075)" fill="#dd2e28"/>
</svg>
