<svg xmlns="http://www.w3.org/2000/svg" width="13.594" height="12.167" viewBox="0 0 13.594 12.167">
  <path id="Path_2271" data-name="Path 2271" d="M-134.468,20.523a1.5,1.5,0,0,0-1.459-1.11,1.492,1.492,0,0,0-1.413,1.138,1.449,1.449,0,0,0,.776,1.651.258.258,0,0,1,.172.269c-.006,1.751,0,1.594,0,3.347a.491.491,0,0,1-.488.572,1.557,1.557,0,0,0-.286-1.175,1.266,1.266,0,0,0-1.016-.3V22.069c0-.8-.418-1.27-1.117-1.27a7.183,7.183,0,0,0-3.944-1.241,5.8,5.8,0,0,0-3.663,1.241,1.044,1.044,0,0,0-1.077.9.134.134,0,0,1-.027.04v8.9a.766.766,0,0,1,.036.092,1.046,1.046,0,0,0,1.009.849q1.545,0,3.089,0h4.567c.711,0,1.127-.471,1.127-1.278V28.873h.008v0a1.275,1.275,0,0,0,1-.294,1.468,1.468,0,0,0,.29-1.169c.158-.034.3-.051.435-.093a1.477,1.477,0,0,0,1.047-1.436c0-1.752,0-1.6,0-3.347a.316.316,0,0,1,.2-.343A1.449,1.449,0,0,0-134.468,20.523Zm-5.395,5.046h-6.527v-3.24h6.527Z" transform="translate(148.015 -19.413)" fill="#dd2e28"/>
</svg>
