<svg xmlns="http://www.w3.org/2000/svg" width="11.03" height="12.874" viewBox="0 0 11.03 12.874">
  <path id="Path_2283" data-name="Path 2283" d="M-136.014,34.123l-.348.187a3.2,3.2,0,0,1-3.9-.682,2.4,2.4,0,0,1-.594-1.535,3.446,3.446,0,0,1,.6-2.191,6,6,0,0,1,.784-.861q1.874-1.781,3.77-3.536c.344-.322.3-.275.586-.007q1.924,1.764,3.822,3.551a5.231,5.231,0,0,1,.9,1,3.5,3.5,0,0,1,.55,1.51,2.651,2.651,0,0,1-1.275,2.576,2.829,2.829,0,0,1-1.59.5,3.682,3.682,0,0,1-1.821-.41,2.62,2.62,0,0,0-.249-.1c.026.176.04.326.062.473a11.454,11.454,0,0,0,.531,2.261,3.165,3.165,0,0,0,.5.927.215.215,0,0,1,.066.242c-.044.1-.139.11-.227.114-.282.007-.568.015-.85.015-.66,0-1.319,0-1.975-.007a2.132,2.132,0,0,1-.268-.026.171.171,0,0,1-.121-.282,3.3,3.3,0,0,0,.693-1.59c.15-.674.238-1.367.352-2.052A.28.28,0,0,0-136.014,34.123Z" transform="translate(140.855 -25.28)" fill="#dd2e28"/>
</svg>
