<svg xmlns="http://www.w3.org/2000/svg" width="11.979" height="12.013" viewBox="0 0 11.979 12.013">
  <path id="Path_2284" data-name="Path 2284" d="M-139.031,29.608a3,3,0,0,1,2.641-3.637,2.882,2.882,0,0,1,2.53,1,2.976,2.976,0,0,1,.688,2.641,2.984,2.984,0,0,1,2.143.846,2.938,2.938,0,0,1,.858,1.573,2.987,2.987,0,0,1-1.368,3.131,2.919,2.919,0,0,1-1.969.415,3.071,3.071,0,0,1-1.8-.905c.008.091.016.182.028.269a12.925,12.925,0,0,0,.277,1.554,5.358,5.358,0,0,0,.269.818,1.568,1.568,0,0,0,.447.636l0,.016-.008,0c-1.194,0-2.392,0-3.586,0l-.024-.008V37.95a1.885,1.885,0,0,0,.526-.854,7.147,7.147,0,0,0,.336-1.309c.059-.356.1-.716.154-1.075v-.063a3,3,0,0,1-2.2.953,2.911,2.911,0,0,1-1.7-.526,2.99,2.99,0,0,1-1.214-3.175,2.927,2.927,0,0,1,1.083-1.664A2.986,2.986,0,0,1-139.031,29.608Z" transform="translate(142.092 -25.956)" fill="#dd2e28"/>
</svg>
