<svg xmlns="http://www.w3.org/2000/svg" width="14.139" height="14.143"><g data-name="Group 4724" fill="#dd2e28"><path data-name="Path 2285" d="M7.113 5.891a.318.318 0 00.311-.158 1.772 1.772 0 00.079-.655v-.64a1.53 1.53 0 00-.083-.627.329.329 0 00-.32-.151.311.311 0 00-.312.164 1.585 1.585 0 00-.081.614v.708a1.283 1.283 0 00.094.585.327.327 0 00.312.16z"/><path data-name="Path 2286" d="M7.094 7.433a.352.352 0 00-.331.169 1.632 1.632 0 00-.1.719v1.212a1.69 1.69 0 00.111.777.391.391 0 00.354.173.341.341 0 00.337-.175 2.275 2.275 0 00.085-.794V8.321a1.494 1.494 0 00-.111-.713.375.375 0 00-.345-.175z"/><path data-name="Path 2287" d="M7.107.002A7.044 7.044 0 000 7.062a7.046 7.046 0 007.085 7.083 7.047 7.047 0 007.053-7.062A7.046 7.046 0 007.107.002zm2.554 10.7a1.775 1.775 0 01-.853.879 3.589 3.589 0 01-1.7.343 3.488 3.488 0 01-1.645-.329 1.976 1.976 0 01-.868-.87 4.494 4.494 0 01-.262-1.809 7.205 7.205 0 01.13-1.47 1.476 1.476 0 01.817-1 1.362 1.362 0 01-.651-.661 2.685 2.685 0 01-.215-1.15 2.314 2.314 0 01.668-1.809 2.927 2.927 0 012-.6 2.83 2.83 0 012.127.64 2.6 2.6 0 01.589 1.828 2.3 2.3 0 01-.192 1.09 2.021 2.021 0 01-.794.664 1.671 1.671 0 01.792.621 4.283 4.283 0 01.275 1.965 4.688 4.688 0 01-.218 1.668z"/></g></svg>