<svg xmlns="http://www.w3.org/2000/svg" width="14.139" height="14.143" viewBox="0 0 14.139 14.143">
  <g id="Group_4724" data-name="Group 4724" transform="translate(142.961 -23.798)">
    <path id="Path_2285" data-name="Path 2285" d="M-139.412,27.745a.318.318,0,0,0,.311-.158,1.772,1.772,0,0,0,.079-.655v-.64a1.53,1.53,0,0,0-.083-.627.329.329,0,0,0-.32-.151.311.311,0,0,0-.312.164,1.585,1.585,0,0,0-.081.614V27a1.283,1.283,0,0,0,.094.585A.327.327,0,0,0-139.412,27.745Z" transform="translate(3.564 1.944)" fill="#dd2e28"/>
    <path id="Path_2286" data-name="Path 2286" d="M-139.407,27.282a.352.352,0,0,0-.331.169,1.632,1.632,0,0,0-.1.719v1.212a1.69,1.69,0,0,0,.111.777.391.391,0,0,0,.354.173.341.341,0,0,0,.337-.175,2.275,2.275,0,0,0,.085-.794V28.17a1.494,1.494,0,0,0-.111-.713A.375.375,0,0,0-139.407,27.282Z" transform="translate(3.54 3.949)" fill="#dd2e28"/>
    <path id="Path_2287" data-name="Path 2287" d="M-135.854,23.8a7.044,7.044,0,0,0-7.107,7.06,7.046,7.046,0,0,0,7.085,7.083,7.047,7.047,0,0,0,7.053-7.062A7.046,7.046,0,0,0-135.854,23.8Zm2.554,10.7a1.775,1.775,0,0,1-.853.879,3.589,3.589,0,0,1-1.7.343,3.488,3.488,0,0,1-1.645-.329,1.976,1.976,0,0,1-.868-.87,4.494,4.494,0,0,1-.262-1.809,7.205,7.205,0,0,1,.13-1.47,1.476,1.476,0,0,1,.817-1,1.362,1.362,0,0,1-.651-.661,2.685,2.685,0,0,1-.215-1.15,2.314,2.314,0,0,1,.668-1.809,2.927,2.927,0,0,1,2-.6,2.83,2.83,0,0,1,2.127.64,2.6,2.6,0,0,1,.589,1.828,2.3,2.3,0,0,1-.192,1.09,2.021,2.021,0,0,1-.794.664,1.671,1.671,0,0,1,.792.621,4.283,4.283,0,0,1,.275,1.965A4.688,4.688,0,0,1-133.3,34.5Z" transform="translate(0 0)" fill="#dd2e28"/>
  </g>
</svg>
