<svg xmlns="http://www.w3.org/2000/svg" width="14.299" height="14.299" viewBox="0 0 14.299 14.299">
  <g id="tYchT9.tif" transform="translate(136.898 -16.021)">
    <g id="Group_4725" data-name="Group 4725" transform="translate(-136.898 16.021)">
      <path id="Path_2288" data-name="Path 2288" d="M-136.9,19.637l.04-.213h1.925l.063,1.659h-1.952l-.077-.58Z" transform="translate(136.898 -12.906)" fill="#dd2e28"/>
      <path id="Path_2289" data-name="Path 2289" d="M-132.322,16.021l.385.056v1.946H-133.6V16.075l.385-.054Z" transform="translate(139.918 -16.021)" fill="#dd2e28"/>
      <path id="Path_2290" data-name="Path 2290" d="M-131.084,26.169a4.345,4.345,0,0,1-4.348-4.334,4.347,4.347,0,0,1,4.336-4.348,4.345,4.345,0,0,1,4.348,4.334A4.348,4.348,0,0,1-131.084,26.169Zm-.1-6.889a5.711,5.711,0,0,0-.657.2,1.284,1.284,0,0,0-.831,1.17,1.252,1.252,0,0,0,.63,1.22,4.791,4.791,0,0,0,.557.287c.222.1.224.094.224.333,0,.326,0,.649,0,.988a.665.665,0,0,1-.157-.025c-.218-.1-.442-.19-.649-.306a.371.371,0,0,0-.521.077,1.36,1.36,0,0,0-.107.146.342.342,0,0,0,.067.485,2.036,2.036,0,0,0,1.109.481c.111.013.161.033.161.159a.244.244,0,0,0,.268.241.254.254,0,0,0,.251-.249c0-.046.006-.092.01-.124a5.094,5.094,0,0,0,.555-.167,1.445,1.445,0,0,0,.94-1.546,1.348,1.348,0,0,0-.818-1.071,5.243,5.243,0,0,0-.5-.22.133.133,0,0,1-.092-.147c.011-.3.015-.605.021-.906,0-.05.008-.1.017-.193.2.094.375.169.542.262a.366.366,0,0,0,.55-.132c.165-.253.146-.442-.082-.586a2.649,2.649,0,0,0-.473-.234,3.976,3.976,0,0,0-.456-.119c-.036-.3-.094-.383-.259-.391S-131.111,18.983-131.18,19.28Z" transform="translate(138.24 -14.679)" fill="#dd2e28"/>
      <path id="Path_2291" data-name="Path 2291" d="M-128.5,19.426a6.725,6.725,0,0,1-.044,1.653h-1.952l.063-1.653Z" transform="translate(142.762 -12.904)" fill="#dd2e28"/>
      <path id="Path_2292" data-name="Path 2292" d="M-133.6,22.432c.285.015.559.044.831.044s.546-.029.827-.044V24.4a6.584,6.584,0,0,1-1.659,0Z" transform="translate(139.918 -10.153)" fill="#dd2e28"/>
      <path id="Path_2293" data-name="Path 2293" d="M-136.05,22.811l1.392-1.394,1.184,1.119-1.4,1.4Z" transform="translate(137.674 -11.082)" fill="#dd2e28"/>
      <path id="Path_2294" data-name="Path 2294" d="M-135.016,16.864l1.394,1.394-1.115,1.174-1.4-1.4Z" transform="translate(137.594 -15.249)" fill="#dd2e28"/>
      <path id="Path_2295" data-name="Path 2295" d="M-131.506,18.244l1.373-1.368A6.926,6.926,0,0,1-129,18.058l-1.381,1.383Z" transform="translate(141.833 -15.238)" fill="#dd2e28"/>
      <path id="Path_2296" data-name="Path 2296" d="M-129.049,22.811l-1.174,1.128-1.4-1.4,1.182-1.12Z" transform="translate(141.725 -11.082)" fill="#dd2e28"/>
      <path id="Path_2297" data-name="Path 2297" d="M-132.29,16.126a7,7,0,0,1,2.153.912l-1.433,1.433c-.209-.088-.435-.182-.659-.28a.108.108,0,0,1-.059-.077C-132.292,17.455-132.29,16.8-132.29,16.126Z" transform="translate(141.116 -15.925)" fill="#dd2e28"/>
      <path id="Path_2298" data-name="Path 2298" d="M-135.161,17.036a6.989,6.989,0,0,1,2.147-.91V16.3c0,.582,0,1.163,0,1.745a.149.149,0,0,1-.113.172c-.209.077-.412.17-.6.251Z" transform="translate(138.488 -15.925)" fill="#dd2e28"/>
      <path id="Path_2299" data-name="Path 2299" d="M-136.814,19.98a7.057,7.057,0,0,1,.812-2.1c.035.029.063.05.088.075.431.431.86.862,1.293,1.289a.146.146,0,0,1,.04.192c-.071.157-.121.322-.186.479a.149.149,0,0,1-.1.082c-.632,0-1.264,0-1.9,0A.282.282,0,0,1-136.814,19.98Z" transform="translate(136.975 -14.324)" fill="#dd2e28"/>
      <path id="Path_2300" data-name="Path 2300" d="M-128.44,19.99h-.967c-.316,0-.632,0-.948,0a.128.128,0,0,1-.147-.105c-.052-.163-.123-.32-.178-.483a.167.167,0,0,1,.013-.13c.458-.464.919-.923,1.379-1.381l.038-.011A7.13,7.13,0,0,1-128.44,19.99Z" transform="translate(142.583 -14.318)" fill="#dd2e28"/>
      <path id="Path_2301" data-name="Path 2301" d="M-135.888,22.714a6.99,6.99,0,0,1-.879-1.982h1.377c.2,0,.391,0,.586,0a.128.128,0,0,1,.146.094c.048.125.115.241.165.368a.154.154,0,0,1-.01.128C-134.959,21.783-135.419,22.243-135.888,22.714Z" transform="translate(137.018 -11.711)" fill="#dd2e28"/>
      <path id="Path_2302" data-name="Path 2302" d="M-129.348,22.71c-.471-.469-.931-.929-1.389-1.392a.136.136,0,0,1-.011-.117,4.236,4.236,0,0,1,.18-.391.15.15,0,0,1,.109-.075c.649-.006,1.3,0,1.95,0a.141.141,0,0,1,.034.011A6.929,6.929,0,0,1-129.348,22.71Z" transform="translate(142.52 -11.71)" fill="#dd2e28"/>
      <path id="Path_2303" data-name="Path 2303" d="M-130.361,23.65a6.958,6.958,0,0,1-1.917.774c0-.046-.01-.084-.01-.123,0-.6,0-1.2,0-1.8,0-.092.036-.124.113-.172.27-.163.45-.092.653.138.331.373.7.714,1.057,1.069C-130.436,23.57-130.405,23.6-130.361,23.65Z" transform="translate(141.114 -10.327)" fill="#dd2e28"/>
      <path id="Path_2304" data-name="Path 2304" d="M-133.121,24.441a6.929,6.929,0,0,1-1.923-.772c.027-.033.042-.054.061-.073q.658-.655,1.312-1.314c.057-.057.107-.08.18-.034a.748.748,0,0,0,.113.05c.257.107.257.107.257.391v1.753Z" transform="translate(138.595 -10.344)" fill="#dd2e28"/>
      <path id="Path_2305" data-name="Path 2305" d="M-133.012,21.111V20.067a.547.547,0,0,1,.465.615A.5.5,0,0,1-133.012,21.111Z" transform="translate(140.455 -12.318)" fill="#dd2e28"/>
      <path id="Path_2306" data-name="Path 2306" d="M-133,18.88v.983a.536.536,0,0,1-.456-.561A.456.456,0,0,1-133,18.88Z" transform="translate(140.048 -13.404)" fill="#dd2e28"/>
    </g>
  </g>
</svg>
