<svg xmlns="http://www.w3.org/2000/svg" width="200" height="46.6"><g data-name="Logo perubet"><path data-name="Union 2" d="M52.762 46.6a.022.022 0 01.016 0zm74.727-4.051a11.89 11.89 0 01-8.149-2.986l-1.189 2.037-7.215-.032 4.414-33.417L124.325 0l1.744.007-1.991 15.084a14.861 14.861 0 017.285-1.869c8.716.038 14.067 6.161 12.936 14.725a16.551 16.551 0 01-16.726 14.6zm-5.7-14.695a5.3 5.3 0 005.51 6.284 7.182 7.182 0 007.163-6.227 5.3 5.3 0 00-5.507-6.314h-.032a7.173 7.173 0 00-7.138 6.253zm23.786-.012c1.077-8.449 8.363-14.662 17.253-14.662 9.13 0 14.643 6.339 13.612 14.422a17.652 17.652 0 01-.522 2.512h-21.035c.236 3.163 2.091 4.8 5.172 4.8a6.594 6.594 0 005.449-2.584h9.708a17.38 17.38 0 01-16.132 10.213c-8.836 0-14.58-6.285-13.509-14.705zm10.154-2.982h11.451c-.506-2.755-2.357-4.242-5.3-4.242a6.38 6.38 0 00-6.155 4.238zm-74.342 4.948l.473-3.273h9.752L91.2 29.4c-.372 2.908 1.018 4.619 3.624 4.619s4.405-1.74 4.772-4.619l1.952-15.317h9.752l-2 15.729c-.983 7.711-7.195 12.735-15.563 12.735S80.4 37.519 81.387 29.808zm-50.447-1.97c1.077-8.449 8.363-14.662 17.253-14.662 9.128 0 14.643 6.337 13.612 14.422a18.083 18.083 0 01-.522 2.514H40.252c.236 3.161 2.09 4.8 5.17 4.8a6.594 6.594 0 005.451-2.586h9.707a17.377 17.377 0 01-16.131 10.22c-8.836-.003-14.582-6.288-13.509-14.708zm10.154-2.984h11.45c-.5-2.754-2.356-4.24-5.3-4.24a6.379 6.379 0 00-6.15 4.241zm148.838 16.785c-6.264 0-9.6-3.725-8.815-9.85l1.326-10.4h-5.185l.282-2.22 14.368-13.147h2l-1.028 8.058H200l-.931 7.311H192.2l-1.118 8.77c-.252 1.974.821 3.164 2.879 3.164h3.739l-1.06 8.314zM0 41.639L4.554 5.912h15.632c7.8 0 12.912 5.418 11.957 12.909A15.057 15.057 0 0116.89 31.772H11.4l-1.258 9.867zm12.491-18.462h4.282a4.846 4.846 0 004.969-4.334 3.6 3.6 0 00-3.864-4.334H13.6z" fill="#fff"/><path data-name="Path 672" d="M90.171 13.528s-5.739-.21-8.036-.219l-1.928-.008a10.765 10.765 0 00-5.764 1.315l.636-1.422 1.73-1.9a.06.06 0 00.014-.03L78.497.145a.058.058 0 00-.059-.066L76.785.072a.059.059 0 00-.041.016l-8.943 8.121a.061.061 0 00-.019.035l-4.306 33.395h10.275a.059.059 0 00.059-.052l1.091-9.685a13.082 13.082 0 011.6-4.628 5.725 5.725 0 014.266-2.716 7.344 7.344 0 01.877-.057h.043c1.265.01.944.067 1.4.072.006 0 .594.019 1.415.015h.349a1.344 1.344 0 00.992-.262 2.158 2.158 0 00.467-2.145 1.025 1.025 0 00-.022-.18c-.064-.228-.128-.445-.188-.649A8.213 8.213 0 0185.77 20a.4.4 0 01.224-.378.319.319 0 01.369.021c.328.3 1.707 1.81 2.993 3.167a1.526 1.526 0 002.63-.912l.923-5.428a2.8 2.8 0 00-2.738-2.942zm-7.8 3.7c-.285.3-1.029.4-2.273.315a55.155 55.155 0 00-.644-.04c-1.487-.085-1.8-.1-2.136-1.385-.081-.306-.141-.568-.054-.671s.423-.145.927-.145h.358l.41.007c1.462.019 3.281.044 3.534 1.145a.831.831 0 01-.127.777z" fill="#da0000"/></g></svg>